<svg id="Layer_1" data-name="Layer 1" xmlns="http://www.w3.org/2000/svg" viewBox="0 0 861.93 313.26"><defs><style>.cls-1{fill:#1d1d1b;}.cls-2{fill:none;stroke:#1d1d1b;stroke-miterlimit:10;stroke-width:3px;}</style></defs><path class="cls-1" d="M77.94,660.54a207,207,0,0,1,59.45-32.33c10.44-3.62,21.12-6.05,31.89-8.45a309.43,309.43,0,0,1,33.36-6c25.22-2.79,50.56-4.46,75.91-5.44,25.06-1,50.15-1.27,75.23-1.39,25.43-.13,50.87-.09,76.3-.37l9.69-.13a1.25,1.25,0,0,0,0-2.5c-25.86.37-51.73.36-77.59.46-25.33.1-50.66.31-76,1.16-25.55.85-51.08,2.35-76.51,5a305.45,305.45,0,0,0-34.17,5.26c-10.81,2.36-21.69,4.56-32.28,7.84a209.45,209.45,0,0,0-60.58,30.23c-2.2,1.58-4.35,3.22-6.49,4.88-1.26,1,.52,2.75,1.77,1.77Z" transform="translate(-75.74 -347.56)"/><path class="cls-1" d="M155.82,638.12a1.25,1.25,0,0,0,0-2.5,1.25,1.25,0,0,0,0,2.5Z" transform="translate(-75.74 -347.56)"/><path class="cls-1" d="M188.69,627.55a1.25,1.25,0,0,0,0-2.5,1.25,1.25,0,0,0,0,2.5Z" transform="translate(-75.74 -347.56)"/><path class="cls-2" d="M431.32,502.92a26.66,26.66,0,0,0-39-10.11,26.65,26.65,0,0,0-37.06-8.59A26.65,26.65,0,0,0,317.89,477a26.64,26.64,0,0,0-37.05-8.58,26.68,26.68,0,0,0-37.36-7.24,26.64,26.64,0,0,0-37-8.58,26.67,26.67,0,0,0-37.35-7.23,26.64,26.64,0,0,0-38.87-7.31,159.46,159.46,0,0,1,301.11,64.87Z" transform="translate(-75.74 -347.56)"/><path class="cls-2" d="M305.21,354.91c-86.66-17.79-136.13,90.45-136.13,90.45" transform="translate(-75.74 -347.56)"/><line class="cls-2" x1="155.36" y1="23.09" x2="155.36" y2="23.09"/><path class="cls-2" d="M206.43,452.59" transform="translate(-75.74 -347.56)"/><path class="cls-2" d="M206.43,452.59" transform="translate(-75.74 -347.56)"/><path class="cls-2" d="M206.13,452.39s41.73-109.83,99.19-97.45" transform="translate(-75.74 -347.56)"/><path class="cls-2" d="M280.84,468.41,305.46,355c-30-6.76-62,106.2-62,106.2" transform="translate(-75.74 -347.56)"/><path class="cls-2" d="M304.83,354.84c86.4,19,87.57,138,87.57,138" transform="translate(-75.74 -347.56)"/><path class="cls-2" d="M355.69,484.18s6.56-117.31-51-129.37" transform="translate(-75.74 -347.56)"/><path class="cls-2" d="M304.58,354.78C334.7,360.79,318,477,318,477" transform="translate(-75.74 -347.56)"/><path class="cls-2" d="M280.93,468.43" transform="translate(-75.74 -347.56)"/><line class="cls-2" x1="201.16" y1="116.47" x2="170.41" y2="261.18"/><line class="cls-2" x1="210.5" y1="118.28" x2="180.31" y2="260.36"/><path class="cls-2" d="M310.31,357.65a4.55,4.55,0,0,0,.67-1,1.21,1.21,0,0,0,.09-.2.69.69,0,0,0,.05-.13,4.43,4.43,0,0,0,.23-.73c.6-2.83-1.49-5.68-4.67-6.35s-6.25,1.07-6.85,3.9a4.78,4.78,0,0,0-.09.76.27.27,0,0,0,0,.09v.15a4.92,4.92,0,0,0,.1.94" transform="translate(-75.74 -347.56)"/><path class="cls-1" d="M125.61,643.41a1.25,1.25,0,0,0,0-2.5,1.25,1.25,0,0,0,0,2.5Z" transform="translate(-75.74 -347.56)"/><path class="cls-1" d="M146.26,625.27a1.25,1.25,0,0,0,0-2.5,1.25,1.25,0,0,0,0,2.5Z" transform="translate(-75.74 -347.56)"/><path class="cls-1" d="M180.1,648.69a1.25,1.25,0,0,0,0-2.5,1.25,1.25,0,0,0,0,2.5Z" transform="translate(-75.74 -347.56)"/><path class="cls-1" d="M311.71,627.55a1.25,1.25,0,0,0,0-2.5,1.25,1.25,0,0,0,0,2.5Z" transform="translate(-75.74 -347.56)"/><path class="cls-1" d="M328.43,618.31a1.25,1.25,0,0,0,0-2.5,1.25,1.25,0,0,0,0,2.5Z" transform="translate(-75.74 -347.56)"/><path class="cls-1" d="M377.61,631.55a1.25,1.25,0,0,0,0-2.5,1.25,1.25,0,0,0,0,2.5Z" transform="translate(-75.74 -347.56)"/><path class="cls-1" d="M394.12,622.31a1.25,1.25,0,0,0,0-2.5,1.25,1.25,0,0,0,0,2.5Z" transform="translate(-75.74 -347.56)"/><path class="cls-1" d="M419.88,619a1.25,1.25,0,0,0,0-2.5,1.25,1.25,0,0,0,0,2.5Z" transform="translate(-75.74 -347.56)"/><path class="cls-1" d="M226,622.27a1.25,1.25,0,0,0,0-2.5,1.25,1.25,0,0,0,0,2.5Z" transform="translate(-75.74 -347.56)"/><path class="cls-1" d="M294.47,618.31a1.25,1.25,0,0,0,0-2.5,1.25,1.25,0,0,0,0,2.5Z" transform="translate(-75.74 -347.56)"/><path class="cls-1" d="M501.68,470.8v23.76c1.19-2.7,4.4-7.65,13-7.65,7.64,0,12.85,4.79,12.85,14.47v20.69h-5.16v-19.8c0-6.16-2.33-10.84-9.15-10.84-7.85,0-11.55,6.38-11.55,13.72v16.92h-5.14V470.8Z" transform="translate(-75.74 -347.56)"/><path class="cls-1" d="M567.44,513.93c0,3,.21,7.33.33,8.14h-4.91a37.67,37.67,0,0,1-.41-5.34c-1.79,3.72-5.64,6.29-13.13,6.29-9.76,0-13.25-5.91-13.25-10.93,0-8.69,8-11.1,17.65-11.1h8.68v-2c0-4-1.72-7.89-9.67-7.89-7.1,0-8.8,3.22-9.55,6.7h-5.13c.44-4.62,3.5-10.85,14.71-10.85,11.73,0,14.68,5.81,14.68,11.44Zm-5-9h-8.53c-8.54,0-12.67,1.83-12.67,6.95,0,3.75,2.73,6.92,8.92,6.92,10,0,12.28-6.07,12.28-12.09Z" transform="translate(-75.74 -347.56)"/><path class="cls-1" d="M584.52,516.49v20.73h-5.14V496.44c0-2.86,0-5.72-.06-8.58h5c.13,1.07.21,3.39.21,6.33,2-3.8,6.18-7.28,13.52-7.28,9.33,0,15.91,7.6,15.91,17.48,0,11-7.49,18.63-16.89,18.63C589.55,523,586.44,519.67,584.52,516.49Zm24.12-11.93c0-6.39-3.7-13.13-12-13.13s-12.25,6.09-12.25,13.71,4,13.34,12.11,13.34S608.64,511.74,608.64,504.56Z" transform="translate(-75.74 -347.56)"/><path class="cls-1" d="M627.9,516.49v20.73h-5.13V496.44c0-2.86,0-5.72-.07-8.58h5a63,63,0,0,1,.21,6.33c2-3.8,6.19-7.28,13.52-7.28,9.33,0,15.91,7.6,15.91,17.48,0,11-7.49,18.63-16.89,18.63C632.94,523,629.82,519.67,627.9,516.49ZM652,504.56c0-6.39-3.7-13.13-12-13.13s-12.24,6.09-12.24,13.71,4,13.34,12.11,13.34S652,511.74,652,504.56Z" transform="translate(-75.74 -347.56)"/><path class="cls-1" d="M667.44,487.86c7.66,17.35,12,27.34,13.15,30.36h.09c1.29-3.36,5-13.4,12.11-30.36h5.39l-14,33.4c-6.11,14.53-8.44,16.91-16.14,16.91a27.28,27.28,0,0,1-4.21-.35v-4.74a31.8,31.8,0,0,0,3.87.3c4.59,0,6.57-2,10.08-9.68l-16-35.84Z" transform="translate(-75.74 -347.56)"/><path class="cls-1" d="M721,487.86h7V476.58h5.15v11.28h9.21v4.25h-9.21v20c0,4.22,1.11,6.08,5,6.08a15.86,15.86,0,0,0,3.49-.32v3.95a13.79,13.79,0,0,1-4.84.58c-6.69,0-8.76-3-8.76-9.77V492.11h-7Z" transform="translate(-75.74 -347.56)"/><path class="cls-1" d="M749.38,497.16c0-3.08,0-6.22-.07-9.3h5c.09.95.23,4.5.23,7.95,2.3-5.45,7.48-8.92,14-8.89V492c-7.9-.08-14,5.12-14,15.28v14.8h-5.14Z" transform="translate(-75.74 -347.56)"/><path class="cls-1" d="M803.19,513.93c0,3,.21,7.33.33,8.14h-4.91a37.67,37.67,0,0,1-.41-5.34c-1.79,3.72-5.64,6.29-13.13,6.29-9.76,0-13.24-5.91-13.24-10.93,0-8.69,8-11.1,17.64-11.1h8.69v-2c0-4-1.73-7.89-9.68-7.89-7.1,0-8.79,3.22-9.54,6.7H773.8c.44-4.62,3.5-10.85,14.71-10.85,11.73,0,14.68,5.81,14.68,11.44Zm-5-9h-8.54c-8.53,0-12.66,1.83-12.66,6.95,0,3.75,2.72,6.92,8.91,6.92,10,0,12.29-6.07,12.29-12.09Z" transform="translate(-75.74 -347.56)"/><path class="cls-1" d="M814.74,487.86c2.66,6.31,11.43,25.77,12.71,29.28h.08c.85-2.52,3.12-8,12.47-29.28h5.29l-15.21,34.21h-5.54l-15.42-34.21Z" transform="translate(-75.74 -347.56)"/><path class="cls-1" d="M854,506.12c.38,7.28,5.22,12.56,12.69,12.56,5.71,0,9-2.46,11-6.13h5.14C881,517.35,876.28,523,866.27,523c-11.74,0-17.47-8.86-17.47-17.94,0-10.53,7-18.17,17.29-18.17,12.89,0,17.23,9.61,17.23,17.78,0,.5,0,.89,0,1.43Zm23.88-4c-.32-4.49-2.69-11-11.84-11-7.4,0-11.24,4.75-11.91,11Z" transform="translate(-75.74 -347.56)"/><path class="cls-1" d="M891.9,522.07V470.8H897v51.27Z" transform="translate(-75.74 -347.56)"/><path class="cls-1" d="M910.89,511.76c1.33,4.51,5.15,7.09,11.8,7.09,7.14,0,9.77-2.54,9.77-6,0-3.13-1.78-5.37-11-6.43-11.73-1.4-14.12-5.42-14.12-9.7s3.4-9.79,14.08-9.79c11.77,0,14.84,6.24,15.15,10.1h-5.22c-.53-2.19-2-6-10.28-6-7,0-8.52,3.07-8.52,5.24,0,2.88,1.76,4.6,10,5.67,12.56,1.61,15.12,5.38,15.12,10.55,0,6.12-4.66,10.53-15.29,10.53-10.14,0-15.52-4.3-16.72-11.26Z" transform="translate(-75.74 -347.56)"/></svg>